<?xml version="1.0" encoding="utf-8"?>
<!-- Generator: Adobe Illustrator 17.1.0, SVG Export Plug-In . SVG Version: 6.00 Build 0)  -->
<!DOCTYPE svg PUBLIC "-//W3C//DTD SVG 1.1//EN" "http://www.w3.org/Graphics/SVG/1.1/DTD/svg11.dtd">
<svg version="1.1" id="Layer_1" xmlns="http://www.w3.org/2000/svg" xmlns:xlink="http://www.w3.org/1999/xlink" x="0px" y="0px"
	 viewBox="0 0 346 108" enable-background="new 0 0 346 108" xml:space="preserve">
<g>
	<path fill="#AEAEAE" d="M147,107.4c-6.5,0-11-4.6-11-10.9c0-6,4.6-10.9,11-10.9c3.8,0,6.1,1,8.3,2.9l-2.9,3.5
		c-1.6-1.3-3.1-2.1-5.5-2.1c-3.4,0-6,3-6,6.6c0,3.8,2.6,6.7,6.4,6.7c1.7,0,3.2-0.4,4.4-1.3v-3h-4.6v-4h9.1v9.1
		C153.8,105.9,150.9,107.4,147,107.4z M184.6,107V86h9.6c2.7,0,4.7,0.8,6.1,2.1c1.2,1.2,1.8,2.8,1.8,4.9c0,3.4-1.8,5.5-4.5,6.5
		l5.1,7.5h-5.4l-4.6-6.7h-3.6v6.7H184.6L184.6,107z M189.2,96.2h4.7c2.3,0,3.5-1.2,3.5-3c0-2-1.4-3-3.6-3h-4.6L189.2,96.2
		L189.2,96.2z M240.7,107.4c-6.5,0-11.1-4.8-11.1-10.9c0-6,4.7-10.9,11.2-10.9s11.1,4.8,11.1,10.9
		C251.9,102.5,247.2,107.4,240.7,107.4z M240.8,103.1c3.7,0,6.3-2.9,6.3-6.6c0-3.6-2.6-6.6-6.4-6.6s-6.3,2.9-6.3,6.6
		C234.4,100.1,237.1,103.1,240.8,103.1z M289,107.3c-5.6,0-9.1-3.2-9.1-9.3V86h4.6v11.9c0,3.4,1.7,5.2,4.5,5.2s4.5-1.7,4.5-5V86h4.6
		v11.8C298.2,104.2,294.6,107.3,289,107.3z M327.1,107V86h8.6c5,0,8,3,8,7.3c0,4.9-3.8,7.4-8.5,7.4h-3.5v6.3H327.1z M331.7,96.6h3.7
		c2.3,0,3.7-1.4,3.7-3.2c0-2.1-1.4-3.2-3.8-3.2h-3.6V96.6z"/>
	<path d="M137,71V2h26.7C185.2,2,200,16.9,200,36.5c0,19.4-14.8,34.5-36.3,34.5H137z M152,57h11.5c12.2,0,20.5-8.3,20.5-20.5
		c0-12-8.2-20.5-20.5-20.5H152V57z M213,71V2h27.9c16.3,0,26.1,9.8,26.1,24.1c0,16-12.3,24.2-27.6,24.2H228V71H213z M228,37h12
		c7.6,0,12-4.5,12-10.6c0-6.8-4.7-10.4-12.3-10.4H228V37z M273,71l29.5-69h14L346,71h-15.8l-6.3-15.4h-29.1L288.4,71H273z M300,42
		h18l-9-22L300,42z"/>
	<path fill="#16CA56" d="M73.1,67.3l0.6-0.6c11.1-11.1,11.1-29.2,0-40.3s-29.2-11.1-40.3,0s-11.1,29.2,0,40.3l-0.2,0.2L64,97.6
		L53.5,108L23.9,78.4l0,0c-0.4-0.4-0.8-0.8-1.2-1.1c-17-17-17-44.5,0-61.5s44.5-17,61.5,0c16.2,16.2,17,42,2.2,59.1l0.1,0.1l-18,18
		L37.8,62.2l0.1-0.1c-8.6-8.6-8.6-22.5,0-31.1s22.5-8.6,31.1,0c8.6,8.6,8.6,22.5,0,31.1l-0.6,0.6L58.1,52.3
		c3.2-2.5,3.7-7.2,1.2-10.4c-2.5-3.2-7.2-3.7-10.4-1.2c-3.2,2.5-3.7,7.2-1.2,10.4c0.2,0.2,0.4,0.4,0.5,0.6l20.3,20.3l4.6-4.6
		C73.2,67.4,73.1,67.3,73.1,67.3z"/>
</g>
</svg>
