<svg xmlns="http://www.w3.org/2000/svg" width="83" height="75" viewBox="0 0 83 75">
    <path fill="#16CA56" fill-rule="nonzero" d="M11.2 75h45c6.2 0 11.2-5 11.2-11.2V22.5h13c1.1 0 2-.9 2-2v-9.2c0-6.2-5-11.2-11.2-11.3h-45C20 0 15 5 15 11.2v41.2H2c-1.1 0-2 .9-2 2v9.2C0 70 5 75 11.2 75zm60-67.5c2.1 0 3.7 1.7 3.8 3.8V15H37.5v-3.7c0-1.3-.2-2.5-.6-3.8h34.3zM22.5 63.8V11.3c0-2.1 1.7-3.8 3.8-3.8 2.1 0 3.8 1.7 3.8 3.8v9.2c0 1.1.9 2 2 2h28v41.3c0 2.1-1.7 3.7-3.7 3.7H21.8c.5-1.2.7-2.4.7-3.7zM7.5 60H15v3.8c0 2.1-1.7 3.8-3.8 3.8-2.1 0-3.8-1.7-3.8-3.8V60h.1z"/>
</svg>
