<?xml version="1.0" encoding="utf-8"?>
<!-- Generator: Adobe Illustrator 17.1.0, SVG Export Plug-In . SVG Version: 6.00 Build 0)  -->
<!DOCTYPE svg PUBLIC "-//W3C//DTD SVG 1.1//EN" "http://www.w3.org/Graphics/SVG/1.1/DTD/svg11.dtd">
<svg version="1.1" id="Layer_1" xmlns="http://www.w3.org/2000/svg" xmlns:xlink="http://www.w3.org/1999/xlink" x="0px" y="0px"
	 viewBox="0 0 182 1372" enable-background="new 0 0 182 1372" xml:space="preserve">
<g opacity="0.5">
	<path fill="none" stroke="#DDDDDD" stroke-linecap="square" d="M1.3,1370l178.6-178.6 M1.3,1234l178.6-178.6 M1.3,1081l178.6-178.6
		 M1.3,928l178.6-178.6 M1.3,775l178.6-178.6 M1.3,622l178.6-178.6 M1.3,469l178.6-178.6 M1.3,316l178.6-178.6 M1.3,1353
		l178.6-178.6 M1.3,1217l178.6-178.6 M1.3,1064l178.6-178.6 M1.3,911l178.6-178.6 M1.3,758l178.6-178.6 M1.3,605l178.6-178.6
		 M1.3,452l178.6-178.6 M1.3,299l178.6-178.6 M1.3,1336l178.6-178.6 M1.3,1200l178.6-178.6 M1.3,1047l178.6-178.6 M1.3,894
		l178.6-178.6 M1.3,741l178.6-178.6 M1.3,588l178.6-178.6 M1.3,435l178.6-178.6 M1.3,282l178.6-178.6 M1.3,1319l178.6-178.6
		 M1.3,1183l178.6-178.6 M1.3,1030l178.6-178.6 M1.3,877l178.6-178.6 M1.3,724l178.6-178.6 M1.3,571l178.6-178.6 M1.3,418
		l178.6-178.6 M1.3,265L179.9,86.4 M1.3,1302l178.6-178.6 M1.3,1149l178.6-178.6 M1.3,996l178.6-178.6 M1.3,843l178.6-178.6
		 M1.3,690l178.6-178.6 M1.3,537l178.6-178.6 M1.3,384l178.6-178.6 M1.3,231L179.9,52.4 M1.3,1268l178.6-178.6 M1.3,1115
		l178.6-178.6 M1.3,962l178.6-178.6 M1.3,809l178.6-178.6 M1.3,656l178.6-178.6 M1.3,503l178.6-178.6 M1.3,350l178.6-178.6 M1.3,197
		L179.9,18.4 M1.3,1166l178.6-178.6 M1.3,1013l178.6-178.6 M1.3,860l178.6-178.6 M1.3,707l178.6-178.6 M1.3,554l178.6-178.6
		 M1.3,401l178.6-178.6 M1.3,248L179.9,69.4 M1.3,1285l178.6-178.6 M1.3,1132l178.6-178.6 M1.3,979l178.6-178.6 M1.3,826
		l178.6-178.6 M1.3,673l178.6-178.6 M1.3,520l178.6-178.6 M1.3,367l178.6-178.6 M1.3,214L179.9,35.4 M1.3,1251l178.6-178.6
		 M1.3,1098l178.6-178.6 M1.3,945l178.6-178.6 M1.3,792l178.6-178.6 M1.3,639l178.6-178.6 M1.3,486l178.6-178.6 M1.3,333
		l178.6-178.6 M1.3,180L179.9,1.4"/>
</g>
</svg>
