<svg xmlns="http://www.w3.org/2000/svg" width="182" height="1372" viewBox="0 0 182 1372">
    <g fill="none" fill-rule="evenodd" stroke="#DDD" stroke-linecap="square">
        <path d="M1.328 1369.965l178.571-178.571M1.328 1233.965l178.571-178.571M1.328 1080.965l178.571-178.571M1.328 927.965l178.571-178.571M1.328 774.965l178.571-178.571M1.328 621.965l178.571-178.571M1.328 468.965l178.571-178.571M1.328 315.965l178.571-178.571M1.328 1352.965l178.571-178.571M1.328 1216.965l178.571-178.571M1.328 1063.965l178.571-178.571M1.328 910.965l178.571-178.571M1.328 757.965l178.571-178.571M1.328 604.965l178.571-178.571M1.328 451.965l178.571-178.571M1.328 298.965l178.571-178.571M1.328 1335.965l178.571-178.571M1.328 1199.965l178.571-178.571M1.328 1046.965l178.571-178.571M1.328 893.965l178.571-178.571M1.328 740.965l178.571-178.571M1.328 587.965l178.571-178.571M1.328 434.965l178.571-178.571M1.328 281.965l178.571-178.571M1.328 1318.965l178.571-178.571M1.328 1182.965l178.571-178.571M1.328 1029.965l178.571-178.571M1.328 876.965l178.571-178.571M1.328 723.965l178.571-178.571M1.328 570.965l178.571-178.571M1.328 417.965l178.571-178.571M1.328 264.965L179.899 86.394M1.328 1301.965l178.571-178.571M1.328 1148.965l178.571-178.571M1.328 995.965l178.571-178.571M1.328 842.965l178.571-178.571M1.328 689.965l178.571-178.571M1.328 536.965l178.571-178.571M1.328 383.965l178.571-178.571M1.328 230.965L179.899 52.394M1.328 1267.965l178.571-178.571M1.328 1114.965l178.571-178.571M1.328 961.965l178.571-178.571M1.328 808.965l178.571-178.571M1.328 655.965l178.571-178.571M1.328 502.965l178.571-178.571M1.328 349.965l178.571-178.571M1.328 196.965L179.899 18.394M1.328 1165.965l178.571-178.571M1.328 1012.965l178.571-178.571M1.328 859.965l178.571-178.571M1.328 706.965l178.571-178.571M1.328 553.965l178.571-178.571M1.328 400.965l178.571-178.571M1.328 247.965L179.899 69.394M1.328 1284.965l178.571-178.571M1.328 1131.965l178.571-178.571M1.328 978.965l178.571-178.571M1.328 825.965l178.571-178.571M1.328 672.965l178.571-178.571M1.328 519.965l178.571-178.571M1.328 366.965l178.571-178.571M1.328 213.965L179.899 35.394M1.328 1250.965l178.571-178.571M1.328 1097.965l178.571-178.571M1.328 944.965l178.571-178.571M1.328 791.965l178.571-178.571M1.328 638.965l178.571-178.571M1.328 485.965l178.571-178.571M1.328 332.965l178.571-178.571M1.328 179.965L179.899 1.394"/>
    </g>
</svg>
