<svg xmlns="http://www.w3.org/2000/svg" width="27" height="28" viewBox="0 0 27 28">
    <g fill="#16CA56" fill-rule="nonzero">
        <path d="M9.907 15.312H8.99V16.9h.917c.394 0 .784-.047.968-.383.112-.207.112-.616 0-.823-.184-.336-.575-.382-.968-.382zM14.869 15.395v3.573h1.067c.626 0 1.052-.3 1.267-.889.166-.455.143-1.149.034-1.6-.19-.792-.742-1.084-1.535-1.084h-.833z"/>
        <path d="M24.256 12.311V8.233L16.046 0H0v27.472h24.256v-5.42H27V12.31h-2.744zM21.83 25.037H2.426V2.434h12.616l6.788 6.808v3.068H4.722v9.74H21.83v2.987zm-3.682-5.653c-.504.599-1.217.902-2.119.902h-2.683v-6.21h2.683c.82 0 1.517.266 2.012.772 1.092 1.107 1.039 3.426.107 4.536zm-5.827-2.536c-.265.817-1.013 1.286-2.054 1.286H8.99v2.152H7.465v-6.21h2.801c1.039 0 1.787.469 2.054 1.282.16.485.16 1 .001 1.49zm11.935-1.453h-2.888v1.177h2.503v1.235h-2.503v2.479h-1.523v-6.21h4.41v1.32z"/>
    </g>
</svg>
