<svg xmlns="http://www.w3.org/2000/svg" width="44" height="44" viewBox="0 0 44 44">
    <g fill="none" fill-rule="evenodd">
        <path d="M0 0h44v44H0z"/>
        <path fill="#000" d="M30.989 11.921l-3.143 18.857a.774.774 0 0 1-.393.552.753.753 0 0 1-.675.037l-5.561-2.271-2.971 3.621a.723.723 0 0 1-.602.283.664.664 0 0 1-.27-.05.77.77 0 0 1-.374-.288.766.766 0 0 1-.142-.448V27.93l10.607-13.001-13.123 11.356-4.85-1.99c-.302-.114-.466-.339-.49-.674-.017-.328.114-.57.392-.725l20.428-11.785a.75.75 0 0 1 .393-.11c.164 0 .311.044.442.134.27.197.38.459.332.786z"/>
    </g>
</svg>
