<svg xmlns="http://www.w3.org/2000/svg" xmlns:xlink="http://www.w3.org/1999/xlink" width="44" height="69" viewBox="0 0 44 69">
    <defs>
        <circle id="b" cx="22" cy="22" r="17"/>
        <filter id="a" width="141.2%" height="141.2%" x="-20.6%" y="-14.7%" filterUnits="objectBoundingBox">
            <feOffset dy="2" in="SourceAlpha" result="shadowOffsetOuter1"/>
            <feGaussianBlur in="shadowOffsetOuter1" result="shadowBlurOuter1" stdDeviation="2"/>
            <feColorMatrix in="shadowBlurOuter1" values="0 0 0 0 0 0 0 0 0 0 0 0 0 0 0 0 0 0 0.165537587 0"/>
        </filter>
    </defs>
    <g fill="none" fill-rule="evenodd">
        <path fill="#16CA56" d="M22 69c14.667-23.233 22-38.9 22-47C44 9.85 34.15 0 22 0S0 9.85 0 22c0 8.1 7.333 23.767 22 47z"/>
        <g>
            <use fill="#000" filter="url(#a)" xlink:href="#b"/>
            <use fill="#FFF" xlink:href="#b"/>
        </g>
        <path fill="#16CA56" fill-rule="nonzero" d="M32.44 19.56l-3.164-.656-2.653-5.503a.698.698 0 0 0-.623-.4h-8.4a.705.705 0 0 0-.7.553l-1.274 5.38-3.066.626a.723.723 0 0 0-.56.73v5.83c0 .403.314.73.7.73h2.198C15.23 28.118 16.336 29 17.6 29s2.37-.881 2.702-2.15h3.696C24.329 28.118 25.436 29 26.7 29s2.37-.881 2.702-2.15H32.3c.386 0 .7-.327.7-.73v-5.83a.723.723 0 0 0-.56-.73zm-4.767-.729H22.5v-4.373h3.066l2.107 4.373zm-9.527-4.373H21.1v4.373h-4.004l1.05-4.373zm-.546 13.12c-.773 0-1.4-.653-1.4-1.458 0-.805.627-1.458 1.4-1.458.773 0 1.4.653 1.4 1.458 0 .805-.627 1.458-1.4 1.458zm9.1 0c-.773 0-1.4-.653-1.4-1.458 0-.805.627-1.458 1.4-1.458.773 0 1.4.653 1.4 1.458 0 .805-.627 1.458-1.4 1.458zm2.702-2.187c-.331-1.27-1.438-2.15-2.702-2.15s-2.37.88-2.702 2.15h-3.696c-.331-1.27-1.438-2.15-2.702-2.15s-2.37.88-2.702 2.15H13.4v-4.504l2.87-.598h12.46l2.87.598v1.705h-.7v1.458h.7v1.341h-2.198z"/>
    </g>
</svg>
