<svg xmlns="http://www.w3.org/2000/svg" width="29" height="29" viewBox="0 0 29 29">
    <path fill="#000" fill-rule="nonzero" d="M24.753 4.236A14.424 14.424 0 0 0 14.5 0 14.424 14.424 0 0 0 4.247 4.236 14.349 14.349 0 0 0 0 14.462c0 3.054.935 5.954 2.708 8.417L.019 29l6.724-2.317a14.453 14.453 0 0 0 7.757 2.242c3.873 0 7.514-1.505 10.253-4.236A14.35 14.35 0 0 0 29 14.462a14.35 14.35 0 0 0-4.247-10.226zM23.052 19.43c-1.325 1.953-1.325 1.953-1.355 1.99-.737.897-1.887 1.36-3.323 1.36a8.194 8.194 0 0 1-1.716-.194c-2.04-.437-4.268-1.58-6.273-3.217-2.004-1.638-3.566-3.59-4.398-5.5-.912-2.094-.857-3.926.156-5.159.03-.035.03-.035 1.76-1.794l.691-.702 3.821 5.067-1.349 1.642c.658.909 1.434 1.878 2.414 2.678.98.8 2.085 1.369 3.107 1.833l1.36-1.655 5.645 2.855-.54.796z"/>
</svg>
