<svg xmlns="http://www.w3.org/2000/svg" width="79" height="99" viewBox="0 0 79 99">
    <path fill="#16CA56" fill-rule="nonzero" d="M68.129 9.372l4.712-4.746L68.257.064 56.824 11.578C44.112 1.119 25.6 2.056 13.994 13.746 2.385 25.436 1.455 44.078 11.84 56.88L.717 68.126l4.499 4.563 4.487-4.477a41.157 41.157 0 0 0 26.948 10.019v14.225H25.848v6.457h28.006v-6.457H43.05V77.725c14.847-2.32 27.28-12.56 32.488-26.753 5.208-14.194 2.372-30.115-7.41-41.6zM36.64 10.749c14.121 0 25.57 11.53 25.57 25.75 0 14.223-11.449 25.752-25.57 25.752S11.071 50.72 11.071 36.5c.041-14.205 11.465-25.71 25.57-25.75zm24.778 50.705C48.607 74.346 28.15 75.28 14.234 63.607l2.137-2.153c12.7 10.641 31.358 9.785 43.044-1.976 11.686-11.76 12.55-30.55 1.993-43.348l2.137-2.153c11.541 14.015 10.62 34.566-2.127 47.477z"/>
</svg>
